<?xml version="1.0" encoding="UTF-8"?>
<svg id="Layer_1" xmlns="http://www.w3.org/2000/svg" version="1.1" viewBox="0 0 669.2 117.1">
  <!-- Generator: Adobe Illustrator 30.1.0, SVG Export Plug-In . SVG Version: 2.1.1 Build 136)  -->
  <defs>
    <style>
      .st0 {
        fill: #010101;
      }
    </style>
  </defs>
  <path class="st0" d="M502,33.1c-.7-1.3,0-3,1.7-3h14.1c.6,0,1.3.3,1.7,1l25.5,41.5c.7,1.3,2.6,1.3,3.3,0l25.2-41.3c.3-.5,1-1,1.7-1h13.9c1.5,0,2.5,1.7,1.7,3l-32.8,53.2c-.3.5-1,1-1.7,1h-19.7c-.6,0-1.3-.3-1.7-1l-32.8-53.2h0l-.2-.2h0ZM521.8,84.2c.9,1.3,0,3-1.7,3h-14.1c-.6,0-1.3-.3-1.7-1l-25.5-41.5c-.7-1.3-2.6-1.3-3.3,0l-25.2,41.3c-.3.5-1,1-1.7,1h-13.9c-1.5,0-2.5-1.7-1.7-3l32.8-53.2c.3-.5,1-1,1.7-1h19.7c.6,0,1.3.3,1.7,1l32.8,53.2h0l.2.2h-.1ZM313.1,33c-.6-1.3.3-2.8,1.7-2.8h13.7c.7,0,1.4.4,1.7,1.1l18.8,37.1c.7,1.5,2.9,1.4,3.5,0l16.6-37c.3-.7,1-1.2,1.8-1.2h18.6c.7,0,1.5.4,1.8,1.2l16.8,36.9c.6,1.4,2.6,1.5,3.4.2l23.9-37.4c.3-.5,1-.9,1.6-.9h13.4c1.5,0,2.5,1.6,1.7,3l-31,53.2c-.3.6-1,1-1.7,1h-19.3c-.7,0-1.5-.4-1.8-1.2l-16.5-36.9c-.6-1.5-2.9-1.5-3.5,0l-16.5,36.9c-.3.7-1,1.2-1.8,1.2h-19.6c-.7,0-1.4-.4-1.7-1.1l-25.7-53.2h.1ZM224.9,32.1c0-1.1.9-1.9,1.9-1.9h22s1.1.2,1.4.6l37.9,39.3c1.2,1.3,3.3.4,3.3-1.4v-36.6c0-1.1.9-1.9,1.9-1.9h12.1c1.1,0,1.9.9,1.9,1.9v53.2c0,1.1-.9,1.9-1.9,1.9h-21s-1.1-.2-1.4-.6l-38.8-40c-1.2-1.3-3.3-.4-3.3,1.4v37.3c0,1.1-.9,1.9-1.9,1.9h-12.1c-1.1,0-1.9-.9-1.9-1.9v-53.2h-.1ZM146.8,32.1c0-1.1.9-1.9,1.9-1.9h68.8c1.1,0,1.9.9,1.9,1.9v10.7c0,1.1-.9,1.9-1.9,1.9h-52.9c-1.1,0-1.9.9-1.9,1.9v2.8c0,1.1.9,1.9,1.9,1.9h33.6c1.1,0,1.9.9,1.9,1.9v10.7c0,1.1-.9,1.9-1.9,1.9h-33.6c-1.1,0-1.9.9-1.9,1.9v2.8c0,1.1.9,1.9,1.9,1.9h52.9c1.1,0,1.9.9,1.9,1.9v10.8c0,1.1-.9,1.9-1.9,1.9h-68.8c-1.1,0-1.9-.9-1.9-1.9V31.9v.2h0ZM596.6,32.1c0-1.1.9-1.9,1.9-1.9h68.8c1.1,0,1.9.9,1.9,1.9v10.7c0,1.1-.9,1.9-1.9,1.9h-52.9c-1.1,0-1.9.9-1.9,1.9v2.8c0,1.1.9,1.9,1.9,1.9h33.6c1.1,0,1.9.9,1.9,1.9v10.7c0,1.1-.9,1.9-1.9,1.9h-33.6c-1.1,0-1.9.9-1.9,1.9v2.8c0,1.1.9,1.9,1.9,1.9h52.9c1.1,0,1.9.9,1.9,1.9v10.8c0,1.1-.9,1.9-1.9,1.9h-68.8c-1.1,0-1.9-.9-1.9-1.9V31.9v.2h0Z"/>
  <g>
    <path class="st0" d="M40.2,40.1h0c-16.6,16.6-16.6,43.4,0,60,10.5,10.5,25.1,14.3,38.7,11.5-7.9-.2-15.8-3.3-21.9-9.4-12.5-12.5-12.5-32.8,0-45.3s32.8-12.5,45.3,0c6.1,6.1,9.2,13.9,9.4,21.9,2.8-13.5-1-28.2-11.5-38.7-16.6-16.6-43.4-16.6-60,0Z"/>
    <path class="st0" d="M33.9,33.9c19.6-19.6,51.3-19.6,70.9,0,5.9,5.9,10,12.8,12.3,20.2-1-13.5-6.7-26.6-17-36.9-22.9-22.9-60-22.9-82.9,0-22.9,22.9-22.9,60,0,82.9s23.5,16,36.9,17c-7.4-2.4-14.3-6.5-20.2-12.3-19.6-19.6-19.6-51.3,0-70.9Z"/>
    <path class="st0" d="M63.2,63.2h0c-9.1,9.1-9.1,23.8,0,32.8,9.1,9.1,23.8,9.1,32.8,0s9.1-23.8,0-32.8c-9.1-9.1-23.8-9.1-32.8,0Z"/>
  </g>
</svg>