<svg width="101" height="58" viewBox="0 0 101 58" fill="none" xmlns="http://www.w3.org/2000/svg">
<g clip-path="url(#clip0_912_693)">
<path d="M94.318 12.2052C94.2495 12.139 94.1742 12.1444 94.1075 12.1898L87.6173 30.5917L83.592 30.5967L76.8932 11.8768C76.8106 11.846 76.7308 11.8464 76.6818 11.8995L76.6845 25.7916C76.685 29.411 77.6707 30.1335 77.7156 30.4955C77.7201 30.5318 77.6239 30.5944 77.5854 30.5944H72.2251C72.1938 30.5327 72.1847 30.413 72.2165 30.3608C72.6329 29.6745 72.9046 28.9496 73.0284 28.1504C73.1523 27.3511 73.2004 26.6689 73.2004 25.8851V11.6745C73.2008 10.9025 73.1491 10.1953 73.0402 9.44821C72.9173 8.60813 72.6288 7.84381 72.1893 7.12575C72.177 7.08991 72.1929 6.9375 72.2677 6.9375L79.8842 6.93886L86.2057 24.6581C86.2724 24.6862 86.3273 24.6894 86.4234 24.6812L92.6823 6.93841L99.9808 6.9375C99.9949 7.03276 99.9949 7.09717 99.9844 7.1702C99.5381 7.8869 99.2632 8.65939 99.1484 9.49901C99.0568 10.1685 98.991 10.8018 98.991 11.4958L98.9901 25.9722C98.9901 26.6603 99.0532 27.2658 99.133 27.9413C99.2355 28.8045 99.5549 29.6799 100.001 30.4066C100.018 30.4347 100.022 30.5236 100.007 30.5432C99.9921 30.5627 99.9223 30.594 99.8887 30.594H93.4634C93.4071 30.5935 93.3604 30.589 93.3359 30.5858C93.3005 30.5817 93.2806 30.4465 93.3037 30.408C93.7301 29.7081 94.0554 28.8576 94.1601 28.0247C94.245 27.352 94.3139 26.7469 94.3139 26.0624L94.3175 12.2043L94.318 12.2052Z" fill="black"/>
<path d="M20.7377 30.5852L15.5947 30.6002L4.81882 12.0899C4.73808 12.0627 4.67412 12.0608 4.59746 12.0876L4.60109 25.8831C4.60109 26.608 4.65779 27.2693 4.74897 27.9702C4.86191 28.8384 5.14406 29.6358 5.60129 30.3797C5.63078 30.4273 5.61173 30.5947 5.53098 30.5947H0.0836301C0.00152743 30.5947 -0.0138952 30.4278 0.0105995 30.3879C0.442432 29.6902 0.725029 28.925 0.84841 28.1076C0.968162 27.312 1.01262 26.5644 1.01262 25.7466V8.37575C0.701895 7.90037 0.411587 7.49938 0.0922486 6.94643L7.18483 6.93555L16.907 23.8587C16.9315 23.9013 16.9823 23.9444 17.0063 23.9603C17.0367 23.9802 17.1533 23.9331 17.1533 23.8913V11.8581C17.1537 10.182 17.0426 8.58849 16.1635 7.16825C16.1331 7.1188 16.1377 6.94008 16.217 6.94008L21.6843 6.93918C21.7429 6.93918 21.7791 7.09249 21.7501 7.13967C20.8293 8.62341 20.7894 10.0477 20.7368 11.771V30.5857L20.7377 30.5852Z" fill="black"/>
<path d="M45.5612 27.0499C43.299 29.7039 40.0154 31.0003 36.5557 31.067C35.0974 31.0951 33.6962 30.9395 32.3054 30.515C30.4225 29.9402 28.7138 28.9455 27.3493 27.5202C25.857 25.9612 24.8486 24.0252 24.3837 21.9141C23.9337 19.8702 23.9301 17.7673 24.3691 15.7206C24.8305 13.57 25.8556 11.6014 27.377 10.0201C28.7415 8.6017 30.447 7.59787 32.3258 7.0227C34.9227 6.22753 38.1384 6.28423 40.6994 7.20051C42.4408 7.82377 44.0048 8.82351 45.2604 10.1816C46.7061 11.7456 47.6786 13.6608 48.1222 15.7505C48.5423 17.7292 48.5459 19.7531 48.1399 21.734C47.7357 23.7063 46.863 25.5221 45.5612 27.0494V27.0499ZM41.5109 25.1833C42.229 24.1545 42.6858 23.01 42.933 21.7663C43.2981 19.9291 43.3108 18.0644 43.0101 16.2141C42.5406 13.3224 40.8718 10.5182 37.8226 9.87316C36.7766 9.6518 35.7356 9.65271 34.6878 9.86726C33.2571 10.1598 32.0423 10.9609 31.1619 12.1194C29.567 14.2178 29.1801 16.924 29.2822 19.5064C29.3661 21.6324 29.8537 23.7381 31.1619 25.4391C32.0963 26.6539 33.4013 27.4418 34.9218 27.6867C37.5015 28.1027 39.9709 27.3887 41.51 25.1833H41.5109Z" fill="black"/>
<path d="M61.6016 20.2573L56.6528 20.2591V27.4932L63.7322 27.4837C64.4621 27.4828 65.1411 27.3821 65.8406 27.237C66.8884 27.0106 67.743 26.4173 68.3087 25.5042C68.2932 25.4058 68.6044 25.3291 68.6044 25.4116L68.6031 30.5959H50.8857C50.8253 30.536 50.8163 30.4281 50.8566 30.3614C51.2798 29.6615 51.5547 28.9203 51.6763 28.1061C51.796 27.3064 51.8419 26.5402 51.8419 25.7224V11.7935C51.8419 10.9761 51.7965 10.21 51.6727 9.40979C51.5525 8.63276 51.2989 7.91697 50.8975 7.24927C50.843 7.159 50.8203 7.06828 50.848 6.93945H68.095L68.0937 11.6347C68.0937 11.7055 67.8269 11.6669 67.812 11.6066C67.274 10.9838 66.5868 10.5987 65.7984 10.3678C64.8712 10.1192 63.9572 10.0811 62.9815 10.0457L56.6524 10.0444V17.1447H61.6225C62.3211 17.1293 62.9666 17.088 63.6438 16.9759C64.458 16.8045 65.1906 16.4892 65.8188 15.9376C65.866 15.8959 66.0043 15.8986 66.0851 15.9263V21.4553C65.9286 21.5211 65.8324 21.4417 65.7258 21.3455C65.1697 20.8447 64.4789 20.5857 63.7463 20.4365C63.0332 20.3186 62.3619 20.2709 61.6012 20.2569L61.6016 20.2573Z" fill="black"/>
<path d="M61.5414 5.16748L58.9277 5.17655L61.2085 0L65.8389 0.0190514L61.5414 5.16748Z" fill="black"/>
</g>
<path d="M30.4058 38.2351V39.2718H26.3239V41.4424H30.0062V42.4574H26.3239V45.9238H25.1684V38.2351H30.4058ZM37.084 43.7857L37.1596 44.9843C37.192 45.3839 37.2784 45.6971 37.4188 45.9238H36.2309C36.0798 45.7187 36.0042 45.3947 36.0042 44.9411L35.9718 44.1204C35.9502 43.6237 35.8314 43.2781 35.637 43.073C35.4318 42.8678 35.1079 42.7598 34.6651 42.7598H32.4298V45.9238H31.2743V38.2351H34.6327C35.4534 38.2351 36.0906 38.4295 36.5657 38.8075C37.0409 39.1854 37.2784 39.7038 37.2784 40.3625C37.2784 40.8376 37.1596 41.2264 36.9329 41.5503C36.7061 41.8743 36.3929 42.0903 35.9826 42.2199C36.3497 42.3278 36.6305 42.5114 36.8033 42.7706C36.9761 43.0298 37.0625 43.3645 37.084 43.7857ZM32.4298 41.7987H34.6543C35.0971 41.7987 35.4426 41.6907 35.7018 41.4531C35.961 41.2264 36.0906 40.9024 36.0906 40.4705C36.0906 40.0601 35.9502 39.7577 35.691 39.5418C35.4318 39.3366 35.0539 39.2286 34.5679 39.2286H32.4298V41.7987ZM43.8257 38.2351V39.2718H39.4954V41.4424H43.4153V42.4574H39.4954V44.8871H43.7933V45.9238H38.3399V38.2351H43.8257ZM50.248 38.2351V39.2718H45.9177V41.4424H49.8376V42.4574H45.9177V44.8871H50.2156V45.9238H44.7622V38.2351H50.248ZM51.1845 38.2351H53.9274C55.1152 38.2351 56.0439 38.5807 56.7351 39.261C57.4046 39.9521 57.7393 40.8916 57.7393 42.0795C57.7393 43.2781 57.4046 44.2176 56.7351 44.8979C56.0439 45.5891 55.1152 45.9238 53.9274 45.9238H51.1845V38.2351ZM52.34 44.9087H53.9166C54.7589 44.9087 55.396 44.6712 55.8496 44.1744C56.3031 43.6885 56.5299 42.9866 56.5299 42.0795C56.5299 41.1724 56.3031 40.4813 55.8496 39.9845C55.396 39.4986 54.7589 39.2502 53.9166 39.2502H52.34V44.9087ZM62.1903 46.0966C61.0456 46.0966 60.1385 45.7295 59.469 44.9843C58.7779 44.25 58.4323 43.2889 58.4323 42.0795C58.4323 40.8916 58.7779 39.9197 59.469 39.1638C60.1385 38.4295 61.0456 38.0623 62.1903 38.0623C63.3133 38.0623 64.2204 38.4295 64.9116 39.1638C65.5919 39.9197 65.9374 40.8916 65.9374 42.0795C65.9374 43.2781 65.5919 44.25 64.9116 44.9843C64.2204 45.7295 63.3133 46.0966 62.1903 46.0966ZM62.1903 45.0599C62.9678 45.0599 63.5833 44.79 64.0477 44.25C64.5012 43.7317 64.7388 43.0082 64.7388 42.0795C64.7388 41.1616 64.5012 40.4381 64.0477 39.8981C63.5725 39.369 62.957 39.099 62.1903 39.099C61.4128 39.099 60.7972 39.369 60.3329 39.8981C59.8577 40.4489 59.631 41.1724 59.631 42.0795C59.631 42.9974 59.8577 43.7209 60.3329 44.25C60.7864 44.79 61.4128 45.0599 62.1903 45.0599ZM71.7125 42.2199L73.2351 38.2351H74.8441V45.9238H73.7318V43.5157C73.7318 41.7879 73.7426 40.4813 73.775 39.6174C73.6239 40.0817 73.4079 40.6756 73.1271 41.3992L71.3885 45.9238H70.4166L68.6564 41.3992C68.4189 40.7728 68.2029 40.1897 68.0193 39.6498C68.0409 40.5137 68.0625 41.7987 68.0625 43.5157V45.9238H66.9502V38.2351H68.5485L70.1251 42.3278C70.449 43.1809 70.7082 43.9045 70.9134 44.4984C71.1509 43.7857 71.4101 43.0298 71.7125 42.2199ZM0.245281 49.2351H6.51935V50.2718H3.97085V56.9238H2.79378V50.2718H0.245281V49.2351ZM12.7653 56.9238H11.5451L10.7892 54.9261H7.33356L6.58844 56.9238H5.38978L8.39183 49.2351H9.72008L12.7653 56.9238ZM7.8627 53.5006L7.70071 53.9218H10.4112L10.2492 53.5006C9.86046 52.5503 9.46091 51.5029 9.05056 50.3474C8.55381 51.6756 8.15426 52.7231 7.8627 53.5006ZM16.1103 57.0966C15.0952 57.0966 14.2961 56.8698 13.7346 56.4055C13.1731 55.9519 12.8815 55.2716 12.8815 54.3861H14.037C14.0586 55.5416 14.7497 56.1139 16.1319 56.1139C16.6934 56.1139 17.1362 56.0059 17.4386 55.79C17.7409 55.574 17.9029 55.25 17.9029 54.8289C17.9029 54.4941 17.7733 54.2349 17.525 54.0514C17.2658 53.8678 16.8122 53.7058 16.1643 53.5546L15.5056 53.4142C14.7065 53.2631 14.1126 53.0039 13.713 52.6367C13.3026 52.2804 13.1083 51.7836 13.1083 51.1465C13.1083 50.5202 13.3458 50.0126 13.8426 49.6347C14.3285 49.2567 14.9872 49.0623 15.8296 49.0623C16.8338 49.0623 17.5897 49.2783 18.0973 49.7103C18.6048 50.1422 18.864 50.7361 18.8856 51.4921H17.7409C17.6977 50.9953 17.5358 50.639 17.2442 50.4014C16.9526 50.1638 16.4883 50.045 15.8403 50.045C15.3328 50.045 14.9441 50.1422 14.6849 50.3258C14.4149 50.5202 14.2853 50.7793 14.2853 51.1249C14.2853 51.4813 14.4041 51.7512 14.6417 51.924C14.8793 52.1184 15.3112 52.2912 15.9591 52.4208L16.6287 52.5611C17.5034 52.7555 18.1297 53.0255 18.5184 53.371C18.9072 53.7274 19.1016 54.2025 19.1016 54.7965C19.1016 55.5092 18.8316 56.0707 18.3025 56.4811C17.7733 56.8914 17.039 57.0966 16.1103 57.0966ZM19.0693 49.2351H25.3433V50.2718H22.7948V56.9238H21.6178V50.2718H19.0693V49.2351ZM31.6106 49.2351V50.2718H27.2803V52.4424H31.2003V53.4574H27.2803V55.8871H31.5782V56.9238H26.1249V49.2351H31.6106ZM35.3772 57.0966C34.3621 57.0966 33.563 56.8698 33.0015 56.4055C32.44 55.9519 32.1484 55.2716 32.1484 54.3861H33.3039C33.3255 55.5416 34.0166 56.1139 35.3988 56.1139C35.9603 56.1139 36.4031 56.0059 36.7055 55.79C37.0078 55.574 37.1698 55.25 37.1698 54.8289C37.1698 54.4941 37.0402 54.2349 36.7918 54.0514C36.5327 53.8678 36.0791 53.7058 35.4312 53.5546L34.7725 53.4142C33.9734 53.2631 33.3794 53.0039 32.9799 52.6367C32.5695 52.2804 32.3752 51.7836 32.3752 51.1465C32.3752 50.5202 32.6127 50.0126 33.1095 49.6347C33.5954 49.2567 34.2541 49.0623 35.0964 49.0623C36.1007 49.0623 36.8566 49.2783 37.3642 49.7103C37.8717 50.1422 38.1309 50.7361 38.1525 51.4921H37.0078C36.9646 50.9953 36.8026 50.639 36.5111 50.4014C36.2195 50.1638 35.7552 50.045 35.1072 50.045C34.5997 50.045 34.2109 50.1422 33.9518 50.3258C33.6818 50.5202 33.5522 50.7793 33.5522 51.1249C33.5522 51.4813 33.671 51.7512 33.9086 51.924C34.1462 52.1184 34.5781 52.2912 35.226 52.4208L35.8956 52.5611C36.7702 52.7555 37.3966 53.0255 37.7853 53.371C38.1741 53.7274 38.3685 54.2025 38.3685 54.7965C38.3685 55.5092 38.0985 56.0707 37.5694 56.4811C37.0402 56.8914 36.3059 57.0966 35.3772 57.0966ZM65.2604 52.9067C65.6924 53.0795 66.0272 53.317 66.2539 53.641C66.4699 53.965 66.5887 54.3321 66.5887 54.7425C66.5887 55.4228 66.3619 55.9519 65.9192 56.3407C65.4764 56.7295 64.8393 56.9238 64.0186 56.9238H60.5522V49.2351H63.8674C64.6449 49.2351 65.2389 49.4187 65.6492 49.7859C66.0596 50.153 66.2755 50.639 66.2755 51.2329C66.2755 51.9888 65.93 52.5395 65.2604 52.9067ZM63.7918 50.2286H61.7077V52.5287H63.7918C64.6881 52.5287 65.1417 52.1292 65.1417 51.3301C65.1417 50.9845 65.0229 50.7146 64.7853 50.5202C64.5477 50.3258 64.2238 50.2286 63.7918 50.2286ZM61.7077 55.9303H63.9538C64.4289 55.9303 64.7853 55.8332 65.0445 55.6172C65.2928 55.412 65.4224 55.1096 65.4224 54.7209C65.4224 53.9002 64.9257 53.4898 63.9538 53.4898H61.7077V55.9303ZM72.9875 49.2351V50.2718H68.6572V52.4424H72.5772V53.4574H68.6572V55.8871H72.9551V56.9238H67.5018V49.2351H72.9875ZM73.4067 49.2351H79.6808V50.2718H77.1323V56.9238H75.9553V50.2718H73.4067V49.2351ZM80.0927 49.2351H86.3668V50.2718H83.8183V56.9238H82.6412V50.2718H80.0927V49.2351ZM92.6341 49.2351V50.2718H88.3038V52.4424H92.2237V53.4574H88.3038V55.8871H92.6017V56.9238H87.1483V49.2351H92.6341ZM99.3803 54.7857L99.4559 55.9843C99.4883 56.3839 99.5747 56.6971 99.7151 56.9238H98.5272C98.3761 56.7187 98.3005 56.3947 98.3005 55.9411L98.2681 55.1204C98.2465 54.6237 98.1277 54.2781 97.9333 54.073C97.7281 53.8678 97.4042 53.7598 96.9614 53.7598H94.7261V56.9238H93.5706V49.2351H96.929C97.7497 49.2351 98.3869 49.4295 98.862 49.8075C99.3371 50.1854 99.5747 50.7038 99.5747 51.3625C99.5747 51.8376 99.4559 52.2264 99.2292 52.5503C99.0024 52.8743 98.6892 53.0903 98.2789 53.2199C98.646 53.3278 98.9268 53.5114 99.0996 53.7706C99.2723 54.0298 99.3587 54.3645 99.3803 54.7857ZM94.7261 52.7987H96.9506C97.3934 52.7987 97.7389 52.6907 97.9981 52.4531C98.2573 52.2264 98.3869 51.9024 98.3869 51.4705C98.3869 51.0601 98.2465 50.7577 97.9873 50.5418C97.7281 50.3366 97.3502 50.2286 96.8642 50.2286H94.7261V52.7987Z" fill="#051007"/>
<defs>
<clipPath id="clip0_912_693">
<rect width="100.018" height="31.0697" fill="white"/>
</clipPath>
</defs>
</svg>
